<svg width="16" height="17" viewBox="0 0 16 17" fill="none" xmlns="http://www.w3.org/2000/svg">
<rect width="16" height="16" rx="2" fill="#1D1D1D"/>
<path d="M5.18359 11.2656C5.18359 11.1328 5.14844 11.0137 5.07812 10.9082C5.00781 10.8027 4.875 10.707 4.67969 10.6211C4.48828 10.5312 4.20703 10.4473 3.83594 10.3691C3.50781 10.2988 3.20508 10.2109 2.92773 10.1055C2.65039 10 2.41211 9.87305 2.21289 9.72461C2.01367 9.57227 1.85742 9.39453 1.74414 9.19141C1.63477 8.98438 1.58008 8.74609 1.58008 8.47656C1.58008 8.21484 1.63672 7.96875 1.75 7.73828C1.86328 7.50391 2.02734 7.29883 2.24219 7.12305C2.45703 6.94336 2.71875 6.80273 3.02734 6.70117C3.33594 6.5957 3.68359 6.54297 4.07031 6.54297C4.60938 6.54297 5.07227 6.63086 5.45898 6.80664C5.84961 6.98242 6.14844 7.22461 6.35547 7.5332C6.5625 7.83789 6.66602 8.18164 6.66602 8.56445H5.11914C5.11914 8.39648 5.08008 8.24414 5.00195 8.10742C4.92773 7.9707 4.8125 7.86133 4.65625 7.7793C4.5 7.69336 4.30273 7.65039 4.06445 7.65039C3.84961 7.65039 3.66797 7.68555 3.51953 7.75586C3.375 7.82617 3.26562 7.91797 3.19141 8.03125C3.11719 8.14453 3.08008 8.26953 3.08008 8.40625C3.08008 8.50781 3.09961 8.59961 3.13867 8.68164C3.18164 8.75977 3.25 8.83203 3.34375 8.89844C3.4375 8.96484 3.56445 9.02539 3.72461 9.08008C3.88867 9.13477 4.08984 9.1875 4.32812 9.23828C4.80078 9.33203 5.21289 9.45703 5.56445 9.61328C5.91992 9.76562 6.19727 9.96875 6.39648 10.2227C6.5957 10.4766 6.69531 10.8008 6.69531 11.1953C6.69531 11.4766 6.63477 11.7344 6.51367 11.9688C6.39258 12.1992 6.2168 12.4004 5.98633 12.5723C5.75586 12.7441 5.48047 12.8789 5.16016 12.9766C4.83984 13.0703 4.47852 13.1172 4.07617 13.1172C3.49414 13.1172 3.00195 13.0137 2.59961 12.8066C2.19727 12.5957 1.89258 12.3301 1.68555 12.0098C1.47852 11.6855 1.375 11.3496 1.375 11.002H2.85742C2.86914 11.248 2.93555 11.4453 3.05664 11.5938C3.17773 11.7422 3.33008 11.8496 3.51367 11.916C3.70117 11.9785 3.89844 12.0098 4.10547 12.0098C4.33984 12.0098 4.53711 11.9785 4.69727 11.916C4.85742 11.8496 4.97852 11.7617 5.06055 11.6523C5.14258 11.5391 5.18359 11.4102 5.18359 11.2656ZM11.373 6.66016V7.77344H7.74023V6.66016H11.373ZM8.71289 5.10156H10.2656V11.1719C10.2656 11.3594 10.291 11.5039 10.3418 11.6055C10.3926 11.707 10.4688 11.7754 10.5703 11.8105C10.6719 11.8457 10.793 11.8633 10.9336 11.8633C11.0352 11.8633 11.1289 11.8574 11.2148 11.8457C11.3008 11.834 11.373 11.8223 11.4316 11.8105L11.4375 12.9707C11.3086 13.0137 11.1621 13.0488 10.998 13.0762C10.8379 13.1035 10.6562 13.1172 10.4531 13.1172C10.1055 13.1172 9.80078 13.0586 9.53906 12.9414C9.27734 12.8203 9.07422 12.627 8.92969 12.3613C8.78516 12.0918 8.71289 11.7363 8.71289 11.2949V5.10156ZM12.9688 12.2441C12.9688 12.0098 13.0488 11.8125 13.209 11.6523C13.3691 11.4922 13.5859 11.4121 13.8594 11.4121C14.1328 11.4121 14.3496 11.4922 14.5098 11.6523C14.6699 11.8125 14.75 12.0098 14.75 12.2441C14.75 12.4746 14.6699 12.6699 14.5098 12.8301C14.3496 12.9863 14.1328 13.0645 13.8594 13.0645C13.5859 13.0645 13.3691 12.9863 13.209 12.8301C13.0488 12.6699 12.9688 12.4746 12.9688 12.2441Z" fill="white"/>
<rect x="1" y="4" width="6" height="2" fill="#D9D9D9"/>
<rect x="12" y="2" width="3" height="8" fill="#D9D9D9"/>
<path d="M7.94737 2.33333L12 2V4H1L7.94737 2.33333Z" fill="#D9D9D9"/>
</svg>
