<svg width="58" height="29" viewBox="0 0 58 29" fill="none" xmlns="http://www.w3.org/2000/svg">
<rect width="58" height="29" rx="5" fill="#1E1E1E"/>
<path d="M10.1836 18.2656C10.1836 18.1328 10.1484 18.0137 10.0781 17.9082C10.0078 17.8027 9.875 17.707 9.67969 17.6211C9.48828 17.5312 9.20703 17.4473 8.83594 17.3691C8.50781 17.2988 8.20508 17.2109 7.92773 17.1055C7.65039 17 7.41211 16.873 7.21289 16.7246C7.01367 16.5723 6.85742 16.3945 6.74414 16.1914C6.63477 15.9844 6.58008 15.7461 6.58008 15.4766C6.58008 15.2148 6.63672 14.9688 6.75 14.7383C6.86328 14.5039 7.02734 14.2988 7.24219 14.123C7.45703 13.9434 7.71875 13.8027 8.02734 13.7012C8.33594 13.5957 8.68359 13.543 9.07031 13.543C9.60938 13.543 10.0723 13.6309 10.459 13.8066C10.8496 13.9824 11.1484 14.2246 11.3555 14.5332C11.5625 14.8379 11.666 15.1816 11.666 15.5645H10.1191C10.1191 15.3965 10.0801 15.2441 10.002 15.1074C9.92773 14.9707 9.8125 14.8613 9.65625 14.7793C9.5 14.6934 9.30273 14.6504 9.06445 14.6504C8.84961 14.6504 8.66797 14.6855 8.51953 14.7559C8.375 14.8262 8.26562 14.918 8.19141 15.0312C8.11719 15.1445 8.08008 15.2695 8.08008 15.4062C8.08008 15.5078 8.09961 15.5996 8.13867 15.6816C8.18164 15.7598 8.25 15.832 8.34375 15.8984C8.4375 15.9648 8.56445 16.0254 8.72461 16.0801C8.88867 16.1348 9.08984 16.1875 9.32812 16.2383C9.80078 16.332 10.2129 16.457 10.5645 16.6133C10.9199 16.7656 11.1973 16.9688 11.3965 17.2227C11.5957 17.4766 11.6953 17.8008 11.6953 18.1953C11.6953 18.4766 11.6348 18.7344 11.5137 18.9688C11.3926 19.1992 11.2168 19.4004 10.9863 19.5723C10.7559 19.7441 10.4805 19.8789 10.1602 19.9766C9.83984 20.0703 9.47852 20.1172 9.07617 20.1172C8.49414 20.1172 8.00195 20.0137 7.59961 19.8066C7.19727 19.5957 6.89258 19.3301 6.68555 19.0098C6.47852 18.6855 6.375 18.3496 6.375 18.002H7.85742C7.86914 18.248 7.93555 18.4453 8.05664 18.5938C8.17773 18.7422 8.33008 18.8496 8.51367 18.916C8.70117 18.9785 8.89844 19.0098 9.10547 19.0098C9.33984 19.0098 9.53711 18.9785 9.69727 18.916C9.85742 18.8496 9.97852 18.7617 10.0605 18.6523C10.1426 18.5391 10.1836 18.4102 10.1836 18.2656ZM16.373 13.6602V14.7734H12.7402V13.6602H16.373ZM13.7129 12.1016H15.2656V18.1719C15.2656 18.3594 15.291 18.5039 15.3418 18.6055C15.3926 18.707 15.4688 18.7754 15.5703 18.8105C15.6719 18.8457 15.793 18.8633 15.9336 18.8633C16.0352 18.8633 16.1289 18.8574 16.2148 18.8457C16.3008 18.834 16.373 18.8223 16.4316 18.8105L16.4375 19.9707C16.3086 20.0137 16.1621 20.0488 15.998 20.0762C15.8379 20.1035 15.6562 20.1172 15.4531 20.1172C15.1055 20.1172 14.8008 20.0586 14.5391 19.9414C14.2773 19.8203 14.0742 19.627 13.9297 19.3613C13.7852 19.0918 13.7129 18.7363 13.7129 18.2949V12.1016ZM19.4512 14.9551V20H17.9043V13.6602H19.3691L19.4512 14.9551ZM21.3789 13.6191L21.3555 15.0605C21.2695 15.0449 21.1719 15.0332 21.0625 15.0254C20.957 15.0176 20.8574 15.0137 20.7637 15.0137C20.5254 15.0137 20.3164 15.0469 20.1367 15.1133C19.957 15.1758 19.8066 15.2676 19.6855 15.3887C19.5684 15.5098 19.4785 15.6582 19.416 15.834C19.3535 16.0059 19.3184 16.2012 19.3105 16.4199L18.9766 16.3789C18.9766 15.9766 19.0176 15.6035 19.0996 15.2598C19.1816 14.916 19.3008 14.6152 19.457 14.3574C19.6133 14.0996 19.8086 13.9004 20.043 13.7598C20.2812 13.6152 20.5547 13.543 20.8633 13.543C20.9492 13.543 21.041 13.5508 21.1387 13.5664C21.2402 13.5781 21.3203 13.5957 21.3789 13.6191ZM26.502 18.4941V13.6602H28.0605V20H26.5957L26.502 18.4941ZM26.7012 17.1816L27.1816 17.1699C27.1816 17.5957 27.1348 17.9883 27.041 18.3477C26.9473 18.707 26.8008 19.0195 26.6016 19.2852C26.4062 19.5469 26.1582 19.752 25.8574 19.9004C25.5566 20.0449 25.2012 20.1172 24.791 20.1172C24.4785 20.1172 24.1934 20.0742 23.9355 19.9883C23.6777 19.8984 23.4551 19.7598 23.2676 19.5723C23.084 19.3809 22.9414 19.1367 22.8398 18.8398C22.7383 18.5391 22.6875 18.1777 22.6875 17.7559V13.6602H24.2344V17.7676C24.2344 17.9785 24.2578 18.1543 24.3047 18.2949C24.3555 18.4355 24.4238 18.5508 24.5098 18.6406C24.5996 18.7266 24.7031 18.7891 24.8203 18.8281C24.9414 18.8633 25.0703 18.8809 25.207 18.8809C25.582 18.8809 25.877 18.8066 26.0918 18.6582C26.3105 18.5059 26.4668 18.3027 26.5605 18.0488C26.6543 17.791 26.7012 17.502 26.7012 17.1816ZM32.5332 18.8984C32.752 18.8984 32.9473 18.8555 33.1191 18.7695C33.291 18.6836 33.4277 18.5625 33.5293 18.4062C33.6348 18.25 33.6914 18.0684 33.6992 17.8613H35.1582C35.1504 18.291 35.0293 18.6758 34.7949 19.0156C34.5605 19.3555 34.248 19.625 33.8574 19.8242C33.4707 20.0195 33.0371 20.1172 32.5566 20.1172C32.0684 20.1172 31.6426 20.0352 31.2793 19.8711C30.916 19.707 30.6133 19.4785 30.3711 19.1855C30.1328 18.8926 29.9531 18.5527 29.832 18.166C29.7148 17.7793 29.6562 17.3652 29.6562 16.9238V16.7363C29.6562 16.2949 29.7148 15.8809 29.832 15.4941C29.9531 15.1074 30.1328 14.7676 30.3711 14.4746C30.6133 14.1816 30.916 13.9531 31.2793 13.7891C31.6426 13.625 32.0664 13.543 32.5508 13.543C33.0625 13.543 33.5117 13.6426 33.8984 13.8418C34.2891 14.041 34.5938 14.3223 34.8125 14.6855C35.0352 15.0488 35.1504 15.4766 35.1582 15.9688H33.6992C33.6914 15.7422 33.6406 15.5391 33.5469 15.3594C33.4531 15.1797 33.3203 15.0352 33.1484 14.9258C32.9766 14.8164 32.7676 14.7617 32.5215 14.7617C32.2598 14.7617 32.041 14.8164 31.8652 14.9258C31.6934 15.0352 31.5586 15.1855 31.4609 15.377C31.3672 15.5645 31.3008 15.7754 31.2617 16.0098C31.2266 16.2402 31.209 16.4824 31.209 16.7363V16.9238C31.209 17.1816 31.2266 17.4277 31.2617 17.6621C31.3008 17.8965 31.3672 18.1074 31.4609 18.2949C31.5586 18.4785 31.6934 18.625 31.8652 18.7344C32.041 18.8438 32.2637 18.8984 32.5332 18.8984ZM39.6895 13.6602V14.7734H36.0566V13.6602H39.6895ZM37.0293 12.1016H38.582V18.1719C38.582 18.3594 38.6074 18.5039 38.6582 18.6055C38.709 18.707 38.7852 18.7754 38.8867 18.8105C38.9883 18.8457 39.1094 18.8633 39.25 18.8633C39.3516 18.8633 39.4453 18.8574 39.5312 18.8457C39.6172 18.834 39.6895 18.8223 39.748 18.8105L39.7539 19.9707C39.625 20.0137 39.4785 20.0488 39.3145 20.0762C39.1543 20.1035 38.9727 20.1172 38.7695 20.1172C38.4219 20.1172 38.1172 20.0586 37.8555 19.9414C37.5938 19.8203 37.3906 19.627 37.2461 19.3613C37.1016 19.0918 37.0293 18.7363 37.0293 18.2949V12.1016ZM41.2852 19.2441C41.2852 19.0098 41.3652 18.8125 41.5254 18.6523C41.6855 18.4922 41.9023 18.4121 42.1758 18.4121C42.4492 18.4121 42.666 18.4922 42.8262 18.6523C42.9863 18.8125 43.0664 19.0098 43.0664 19.2441C43.0664 19.4746 42.9863 19.6699 42.8262 19.8301C42.666 19.9863 42.4492 20.0645 42.1758 20.0645C41.9023 20.0645 41.6855 19.9863 41.5254 19.8301C41.3652 19.6699 41.2852 19.4746 41.2852 19.2441Z" fill="white"/>
<rect x="7" y="21" width="37" height="1" fill="#D9D9D9"/>
<rect x="17" y="10" width="19" height="2" fill="#D9D9D9"/>
<path d="M34.0526 7.5L44 7V10H17L34.0526 7.5Z" fill="#D9D9D9"/>
<rect x="44" y="5" width="7" height="17" fill="#D9D9D9"/>
<path d="M10.1836 18.2656C10.1836 18.1328 10.1484 18.0137 10.0781 17.9082C10.0078 17.8027 9.875 17.707 9.67969 17.6211C9.48828 17.5312 9.20703 17.4473 8.83594 17.3691C8.50781 17.2988 8.20508 17.2109 7.92773 17.1055C7.65039 17 7.41211 16.873 7.21289 16.7246C7.01367 16.5723 6.85742 16.3945 6.74414 16.1914C6.63477 15.9844 6.58008 15.7461 6.58008 15.4766C6.58008 15.2148 6.63672 14.9688 6.75 14.7383C6.86328 14.5039 7.02734 14.2988 7.24219 14.123C7.45703 13.9434 7.71875 13.8027 8.02734 13.7012C8.33594 13.5957 8.68359 13.543 9.07031 13.543C9.60938 13.543 10.0723 13.6309 10.459 13.8066C10.8496 13.9824 11.1484 14.2246 11.3555 14.5332C11.5625 14.8379 11.666 15.1816 11.666 15.5645H10.1191C10.1191 15.3965 10.0801 15.2441 10.002 15.1074C9.92773 14.9707 9.8125 14.8613 9.65625 14.7793C9.5 14.6934 9.30273 14.6504 9.06445 14.6504C8.84961 14.6504 8.66797 14.6855 8.51953 14.7559C8.375 14.8262 8.26562 14.918 8.19141 15.0312C8.11719 15.1445 8.08008 15.2695 8.08008 15.4062C8.08008 15.5078 8.09961 15.5996 8.13867 15.6816C8.18164 15.7598 8.25 15.832 8.34375 15.8984C8.4375 15.9648 8.56445 16.0254 8.72461 16.0801C8.88867 16.1348 9.08984 16.1875 9.32812 16.2383C9.80078 16.332 10.2129 16.457 10.5645 16.6133C10.9199 16.7656 11.1973 16.9688 11.3965 17.2227C11.5957 17.4766 11.6953 17.8008 11.6953 18.1953C11.6953 18.4766 11.6348 18.7344 11.5137 18.9688C11.3926 19.1992 11.2168 19.4004 10.9863 19.5723C10.7559 19.7441 10.4805 19.8789 10.1602 19.9766C9.83984 20.0703 9.47852 20.1172 9.07617 20.1172C8.49414 20.1172 8.00195 20.0137 7.59961 19.8066C7.19727 19.5957 6.89258 19.3301 6.68555 19.0098C6.47852 18.6855 6.375 18.3496 6.375 18.002H7.85742C7.86914 18.248 7.93555 18.4453 8.05664 18.5938C8.17773 18.7422 8.33008 18.8496 8.51367 18.916C8.70117 18.9785 8.89844 19.0098 9.10547 19.0098C9.33984 19.0098 9.53711 18.9785 9.69727 18.916C9.85742 18.8496 9.97852 18.7617 10.0605 18.6523C10.1426 18.5391 10.1836 18.4102 10.1836 18.2656ZM16.373 13.6602V14.7734H12.7402V13.6602H16.373ZM13.7129 12.1016H15.2656V18.1719C15.2656 18.3594 15.291 18.5039 15.3418 18.6055C15.3926 18.707 15.4688 18.7754 15.5703 18.8105C15.6719 18.8457 15.793 18.8633 15.9336 18.8633C16.0352 18.8633 16.1289 18.8574 16.2148 18.8457C16.3008 18.834 16.373 18.8223 16.4316 18.8105L16.4375 19.9707C16.3086 20.0137 16.1621 20.0488 15.998 20.0762C15.8379 20.1035 15.6562 20.1172 15.4531 20.1172C15.1055 20.1172 14.8008 20.0586 14.5391 19.9414C14.2773 19.8203 14.0742 19.627 13.9297 19.3613C13.7852 19.0918 13.7129 18.7363 13.7129 18.2949V12.1016ZM19.4512 14.9551V20H17.9043V13.6602H19.3691L19.4512 14.9551ZM21.3789 13.6191L21.3555 15.0605C21.2695 15.0449 21.1719 15.0332 21.0625 15.0254C20.957 15.0176 20.8574 15.0137 20.7637 15.0137C20.5254 15.0137 20.3164 15.0469 20.1367 15.1133C19.957 15.1758 19.8066 15.2676 19.6855 15.3887C19.5684 15.5098 19.4785 15.6582 19.416 15.834C19.3535 16.0059 19.3184 16.2012 19.3105 16.4199L18.9766 16.3789C18.9766 15.9766 19.0176 15.6035 19.0996 15.2598C19.1816 14.916 19.3008 14.6152 19.457 14.3574C19.6133 14.0996 19.8086 13.9004 20.043 13.7598C20.2812 13.6152 20.5547 13.543 20.8633 13.543C20.9492 13.543 21.041 13.5508 21.1387 13.5664C21.2402 13.5781 21.3203 13.5957 21.3789 13.6191ZM26.502 18.4941V13.6602H28.0605V20H26.5957L26.502 18.4941ZM26.7012 17.1816L27.1816 17.1699C27.1816 17.5957 27.1348 17.9883 27.041 18.3477C26.9473 18.707 26.8008 19.0195 26.6016 19.2852C26.4062 19.5469 26.1582 19.752 25.8574 19.9004C25.5566 20.0449 25.2012 20.1172 24.791 20.1172C24.4785 20.1172 24.1934 20.0742 23.9355 19.9883C23.6777 19.8984 23.4551 19.7598 23.2676 19.5723C23.084 19.3809 22.9414 19.1367 22.8398 18.8398C22.7383 18.5391 22.6875 18.1777 22.6875 17.7559V13.6602H24.2344V17.7676C24.2344 17.9785 24.2578 18.1543 24.3047 18.2949C24.3555 18.4355 24.4238 18.5508 24.5098 18.6406C24.5996 18.7266 24.7031 18.7891 24.8203 18.8281C24.9414 18.8633 25.0703 18.8809 25.207 18.8809C25.582 18.8809 25.877 18.8066 26.0918 18.6582C26.3105 18.5059 26.4668 18.3027 26.5605 18.0488C26.6543 17.791 26.7012 17.502 26.7012 17.1816ZM32.5332 18.8984C32.752 18.8984 32.9473 18.8555 33.1191 18.7695C33.291 18.6836 33.4277 18.5625 33.5293 18.4062C33.6348 18.25 33.6914 18.0684 33.6992 17.8613H35.1582C35.1504 18.291 35.0293 18.6758 34.7949 19.0156C34.5605 19.3555 34.248 19.625 33.8574 19.8242C33.4707 20.0195 33.0371 20.1172 32.5566 20.1172C32.0684 20.1172 31.6426 20.0352 31.2793 19.8711C30.916 19.707 30.6133 19.4785 30.3711 19.1855C30.1328 18.8926 29.9531 18.5527 29.832 18.166C29.7148 17.7793 29.6562 17.3652 29.6562 16.9238V16.7363C29.6562 16.2949 29.7148 15.8809 29.832 15.4941C29.9531 15.1074 30.1328 14.7676 30.3711 14.4746C30.6133 14.1816 30.916 13.9531 31.2793 13.7891C31.6426 13.625 32.0664 13.543 32.5508 13.543C33.0625 13.543 33.5117 13.6426 33.8984 13.8418C34.2891 14.041 34.5938 14.3223 34.8125 14.6855C35.0352 15.0488 35.1504 15.4766 35.1582 15.9688H33.6992C33.6914 15.7422 33.6406 15.5391 33.5469 15.3594C33.4531 15.1797 33.3203 15.0352 33.1484 14.9258C32.9766 14.8164 32.7676 14.7617 32.5215 14.7617C32.2598 14.7617 32.041 14.8164 31.8652 14.9258C31.6934 15.0352 31.5586 15.1855 31.4609 15.377C31.3672 15.5645 31.3008 15.7754 31.2617 16.0098C31.2266 16.2402 31.209 16.4824 31.209 16.7363V16.9238C31.209 17.1816 31.2266 17.4277 31.2617 17.6621C31.3008 17.8965 31.3672 18.1074 31.4609 18.2949C31.5586 18.4785 31.6934 18.625 31.8652 18.7344C32.041 18.8438 32.2637 18.8984 32.5332 18.8984ZM39.6895 13.6602V14.7734H36.0566V13.6602H39.6895ZM37.0293 12.1016H38.582V18.1719C38.582 18.3594 38.6074 18.5039 38.6582 18.6055C38.709 18.707 38.7852 18.7754 38.8867 18.8105C38.9883 18.8457 39.1094 18.8633 39.25 18.8633C39.3516 18.8633 39.4453 18.8574 39.5312 18.8457C39.6172 18.834 39.6895 18.8223 39.748 18.8105L39.7539 19.9707C39.625 20.0137 39.4785 20.0488 39.3145 20.0762C39.1543 20.1035 38.9727 20.1172 38.7695 20.1172C38.4219 20.1172 38.1172 20.0586 37.8555 19.9414C37.5938 19.8203 37.3906 19.627 37.2461 19.3613C37.1016 19.0918 37.0293 18.7363 37.0293 18.2949V12.1016ZM41.2852 19.2441C41.2852 19.0098 41.3652 18.8125 41.5254 18.6523C41.6855 18.4922 41.9023 18.4121 42.1758 18.4121C42.4492 18.4121 42.666 18.4922 42.8262 18.6523C42.9863 18.8125 43.0664 19.0098 43.0664 19.2441C43.0664 19.4746 42.9863 19.6699 42.8262 19.8301C42.666 19.9863 42.4492 20.0645 42.1758 20.0645C41.9023 20.0645 41.6855 19.9863 41.5254 19.8301C41.3652 19.6699 41.2852 19.4746 41.2852 19.2441Z" fill="white"/>
<rect x="7" y="21" width="37" height="1" fill="#D9D9D9"/>
<rect x="17" y="10" width="19" height="2" fill="#D9D9D9"/>
<path d="M34.0526 7.5L44 7V10H17L34.0526 7.5Z" fill="#D9D9D9"/>
<rect x="44" y="5" width="7" height="17" fill="#D9D9D9"/>
</svg>
